<svg xmlns="http://www.w3.org/2000/svg" xmlns:xlink="http://www.w3.org/1999/xlink" viewBox="0 0 735.3 628.8"><defs><style>.cls-1{fill:none;}.cls-2{fill:#fff;}.cls-3{fill:#b5b5b5;}.cls-4{fill:#f15025;}.cls-5{clip-path:url(#clip-path);}.cls-6{fill:#1d7cbc;}</style><clipPath id="clip-path"><rect class="cls-1" x="8.3" y="409" width="426" height="30.3"/></clipPath></defs><title>cards</title><g id="Layer_2" data-name="Layer 2"><g id="Layer_1-2" data-name="Layer 1"><path class="cls-2" d="M715.6,515.2H135a19.8,19.8,0,0,1-19.7-19.7V19.7A19.8,19.8,0,0,1,135,0H715.6a19.8,19.8,0,0,1,19.7,19.7V495.6A19.72,19.72,0,0,1,715.6,515.2Z"/><path class="cls-3" d="M321.3,53.7H148.6a12,12,0,0,1-12-12V31a12,12,0,0,1,12-12H321.3a12,12,0,0,1,12,12V41.7A12,12,0,0,1,321.3,53.7Z"/><path class="cls-3" d="M494.2,193.3H148.6a12,12,0,0,1-12-12V127.8a12,12,0,0,1,12-12H494.2a12,12,0,0,1,12,12v53.5A12,12,0,0,1,494.2,193.3Z"/><path class="cls-3" d="M696.9,99.6H541.2a12,12,0,0,1-12-12V83.5a12,12,0,0,1,12-12H696.9a12,12,0,0,1,12,12v4.1A12,12,0,0,1,696.9,99.6Z"/><path class="cls-3" d="M696.9,142.4H541.2a12,12,0,0,1-12-12v-4.1a12,12,0,0,1,12-12H696.9a12,12,0,0,1,12,12v4.1A12,12,0,0,1,696.9,142.4Z"/><path class="cls-3" d="M696.9,185.3H541.2a12,12,0,0,1-12-12v-4.1a12,12,0,0,1,12-12H696.9a12,12,0,0,1,12,12v4.1A12,12,0,0,1,696.9,185.3Z"/><path class="cls-3" d="M696.9,228.1H541.2a12,12,0,0,1-12-12V212a12,12,0,0,1,12-12H696.9a12,12,0,0,1,12,12v4.1A12,12,0,0,1,696.9,228.1Z"/><path class="cls-3" d="M696.9,270.9H541.2a12,12,0,0,1-12-12v-4.1a12,12,0,0,1,12-12H696.9a12,12,0,0,1,12,12v4.1A12,12,0,0,1,696.9,270.9Z"/><path class="cls-3" d="M696.9,313.7H541.2a12,12,0,0,1-12-12v-4.1a12,12,0,0,1,12-12H696.9a12,12,0,0,1,12,12v4.1A12,12,0,0,1,696.9,313.7Z"/><path class="cls-3" d="M494.2,304.9H148.6a12,12,0,0,1-12-12V226.6a12,12,0,0,1,12-12H494.2a12,12,0,0,1,12,12v66.3A12,12,0,0,1,494.2,304.9Z"/><path class="cls-3" d="M494.2,486.3H148.6a12,12,0,0,1-12-12V340.7a12,12,0,0,1,12-12H494.2a12,12,0,0,1,12,12V474.3A12,12,0,0,1,494.2,486.3Z"/><path class="cls-3" d="M192.7,98.8H148.6a12,12,0,0,1-12-12V83.5a12,12,0,0,1,12-12h44.1a12,12,0,0,1,12,12v3.3A12,12,0,0,1,192.7,98.8Z"/><path class="cls-3" d="M270.9,98.8H226.8a12,12,0,0,1-12-12V83.5a12,12,0,0,1,12-12h44.1a12,12,0,0,1,12,12v3.3A12,12,0,0,1,270.9,98.8Z"/><path class="cls-3" d="M312,97.9h-4.1a12,12,0,0,1-12-12V83.5a12,12,0,0,1,12-12H312a12,12,0,0,1,12,12v2.4A12,12,0,0,1,312,97.9Z"/><circle class="cls-3" cx="708.5" cy="31.1" r="14.1"/><path class="cls-2" d="M415.8,618.7H27.5A17.52,17.52,0,0,1,10,601.2V428a17.52,17.52,0,0,1,17.5-17.5H415.8A17.52,17.52,0,0,1,433.3,428V601.3A17.56,17.56,0,0,1,415.8,618.7Z"/><path class="cls-4" d="M415.8,410.5A17.52,17.52,0,0,1,433.3,428V601.3a17.52,17.52,0,0,1-17.5,17.5H27.5A17.52,17.52,0,0,1,10,601.3V428a17.52,17.52,0,0,1,17.5-17.5H415.8m0-10H27.5A27.55,27.55,0,0,0,0,428V601.3a27.55,27.55,0,0,0,27.5,27.5H415.8a27.55,27.55,0,0,0,27.5-27.5V428a27.61,27.61,0,0,0-27.5-27.5Z"/><g class="cls-5"><path class="cls-6" d="M415.8,469.6H27.5A17.52,17.52,0,0,1,10,452.1V428a17.52,17.52,0,0,1,17.5-17.5H415.8A17.52,17.52,0,0,1,433.3,428v24.2A17.56,17.56,0,0,1,415.8,469.6Z"/></g><circle class="cls-3" cx="401.9" cy="581" r="11"/><path class="cls-3" d="M210.1,507H34.4a12,12,0,0,1-12-12V472a12,12,0,0,1,12-12H210.1a12,12,0,0,1,12,12v23A12,12,0,0,1,210.1,507Z"/><path class="cls-3" d="M321.1,550H34.4a12,12,0,0,1-12-12h0a12,12,0,0,1,12-12H321.1a12,12,0,0,1,12,12h0A12,12,0,0,1,321.1,550Z"/><path class="cls-3" d="M120.3,594H34.4a12,12,0,0,1-12-12h0a12,12,0,0,1,12-12h85.9a12,12,0,0,1,12,12h0A12,12,0,0,1,120.3,594Z"/><path class="cls-3" d="M230.3,594H173.6a12,12,0,0,1-12-12h0a12,12,0,0,1,12-12h56.7a12,12,0,0,1,12,12h0A12,12,0,0,1,230.3,594Z"/></g></g></svg>