<?xml version="1.0" encoding="utf-8"?>
<!-- Generator: Adobe Illustrator 22.1.0, SVG Export Plug-In . SVG Version: 6.00 Build 0)  -->
<svg version="1.1" xmlns="http://www.w3.org/2000/svg" xmlns:xlink="http://www.w3.org/1999/xlink" x="0px" y="0px"
	 viewBox="0 0 500 500" style="enable-background:new 0 0 500 500;" xml:space="preserve">
<style type="text/css">
	.st0{fill:#6B81BE;}
	.st1{fill:#9AB3DA;}
	.st2{fill:#F15025;}
	.st3{fill:#404B7C;}
	.st4{fill:#ECBDBB;}
	.st5{fill:#F68D88;}
	.st6{fill:#F9D4D4;}
	.st7{fill:#FFFFFF;}
</style>
<g id="STONE">
	<g>
		<g>
			<g>
				<path class="st0" d="M218,459.6H111.7c-0.2,0-0.4-0.2-0.4-0.4s0.2-0.4,0.4-0.4H218c0.2,0,0.4,0.2,0.4,0.4S218.2,459.6,218,459.6
					z"/>
			</g>
			<g>
				<path class="st0" d="M210.7,464.9h-42.3c-0.2,0-0.4-0.2-0.4-0.4s0.2-0.4,0.4-0.4h42.3c0.2,0,0.4,0.2,0.4,0.4
					S210.9,464.9,210.7,464.9z"/>
			</g>
			<g>
				<path class="st0" d="M457.3,459.6H351c-0.2,0-0.4-0.2-0.4-0.4s0.2-0.4,0.4-0.4h106.3c0.2,0,0.4,0.2,0.4,0.4
					S457.6,459.6,457.3,459.6z"/>
			</g>
			<g>
				<path class="st0" d="M408.7,464.9h-42.3c-0.2,0-0.4-0.2-0.4-0.4s0.2-0.4,0.4-0.4h42.3c0.2,0,0.4,0.2,0.4,0.4
					S408.9,464.9,408.7,464.9z"/>
			</g>
		</g>
		<g>
			<path class="st0" d="M75.5,455c0,0-0.5-16,2.2-22s5.8-24,11.2-30.2s14-24.8,16-44.5s6-48.5,17-48.2s8.8,26.8,13,37.8s9.5,15,9,34
				s18.8,24.5,20.5,42.2l2.2,31H75.5z"/>
			<path class="st1" d="M87,455c0,0-0.2-13.5,5.8-26s3-24.2,7-34.8s-3.2-30.4,5.5-38.4c8.7-8.1,16.5,9.9,17.5,26.7
				c1,16.8,10,17.3,11.5,32.3s9.2,15.8,14.5,24.8c5.2,9,4.5,15.5,4.5,15.5H87z"/>
		</g>
		<g>
			<path class="st1" d="M346.2,464.5H224l10-24.2c0,0,1.3-5.4,2.4-10.4c0.9-4,1.6-7.8,1.6-8.8c0-0.4,0.5-1.4,1.4-2.9
				c2.8-4.6,9.3-13.7,13.9-19.9c2.8-3.9,4.9-6.7,4.9-6.7s8.2-0.3,16.9-0.6c8.9-0.3,18.2-1.3,20.1-1.3c0.2,0,0.3,0,0.3,0
				c0.9,0,8.3-1.5,13.8-3.2c3.5-1.1,6.3-1.9,6.3-1.9l12.8,5.8c0,0-0.1,1.1-0.3,3c-0.3,2.6-0.7,6.5-1.2,10.4
				c-0.6,5.8-1.2,11.3-1.2,11.7C325.8,416,346.2,464.5,346.2,464.5z"/>
			<path class="st0" d="M293.8,464.5h-14.1c-1-5.6-2.3-12.3-3-14.2c-1.2-3.5-10.8-11.5-13.8-12.8c-2.7-1.1-22.2-6.3-26.6-7.7
				c0.9-4,1.6-7.8,1.6-8.8c0-0.4,0.5-1.4,1.4-2.9c7.5,1.4,21.3,4.1,26.3,6.1c7,2.8,19.2,15.8,22,20
				C289.4,446.8,292,456.8,293.8,464.5z"/>
			<path class="st0" d="M328.2,393.2c-0.3,2.6-0.7,6.5-1.2,10.4c-6.3-1.4-14.9-3.7-22.8-7.6c-3.1-1.5-6.3-4.2-9-6.4
				c0.2,0,0.3,0,0.3,0c0.9,0,8.3-1.5,13.8-3.2C314,389.4,320.1,391.9,328.2,393.2z"/>
			<path class="st0" d="M329.1,464.5H316c-3.7-10.9-9.8-28.1-13.5-33.2c-5.5-7.8-21.2-23.5-28.5-26.8c-4.7-2.1-14.3-4.7-20.7-6.3
				c2.8-3.9,4.9-6.7,4.9-6.7s8.2-0.3,16.9-0.6c8.8,2.7,18.3,6.4,22.4,10.3c8.2,8,20.2,24,23.2,32.8
				C322.5,439.2,326.3,453.6,329.1,464.5z"/>
		</g>
	</g>
</g>
<g id="CLOUD">
	<g>
		<path class="st1" d="M120.2,111.1c0,0-4.3,10-6.7,13.8c-2.4,3.7,0.7,5.2,8.4-2.8s24.1-26.5,32.4-34.2s15.1-10.9,14.7-15
			s-6.3,1.5-10.6,3.4s-9.1,1.6-16,4s-6.7,6.1-7,10.3c-0.3,4.2-2.7,3.9-6.9,3C124.1,92.8,117.2,95.8,120.2,111.1z"/>
		<path class="st1" d="M246.5,98c2,2.3,31.2-26.6,43.9-37.7s27.4-19.8,30.4-24.4c3-4.6-11.9,2.4-14.6,3.3c-2.7,0.8-5.2-3.3-13-1.4
			c-7.9,1.9-6.2,8.1-7.6,9.5c-1.4,1.4-10.6-0.5-15.7,4.1s-1.9,11.7-3,14.1c-1.1,2.4-8.4,2.2-11.7,5.4c-3.3,3.3-1.4,6,0.3,10.9
			C257.1,86.6,243.5,94.5,246.5,98z"/>
		<circle class="st2" cx="344" cy="99" r="14.2"/>
		<path class="st1" d="M334.9,199c-3,0,1.4-5.1,4.2-9.5s1.8-10.6,6.5-12.1s7.8-4.2,7.1-9.9s1.8-16.2,13.8-13.5c0,0,1.4-5.4,7.6-4.2
			s13.5-4.1,18.6-7.4s5.5-1.4,1.6,2.5s-34.9,31.6-42.6,38.6S336.4,199,334.9,199z"/>
	</g>
</g>
<g id="PLANT">
	<g>
		<g>
			<g>
				<path class="st1" d="M368.6,397.5c0,0,16.8,25.6,13,61.7h-8.2C373.4,459.2,360.8,430.2,368.6,397.5z"/>
				<g>
					<path class="st0" d="M377.7,459.6c-0.2,0-0.4-0.2-0.4-0.4l-7.2-48.5c0-0.2,0.1-0.5,0.4-0.5c0.2,0,0.5,0.1,0.5,0.4l7.2,48.5
						C378.1,459.3,378,459.6,377.7,459.6C377.7,459.6,377.7,459.6,377.7,459.6z"/>
				</g>
			</g>
			<g>
				<path class="st0" d="M398.2,380.3c0,0,7.2,32.3-14.5,78.8h-8.2C375.5,459.2,375.5,421.8,398.2,380.3z"/>
				<g>
					<path class="st1" d="M379.8,459.6C379.7,459.6,379.7,459.6,379.8,459.6c-0.3-0.1-0.5-0.3-0.4-0.5l14.5-62
						c0.1-0.2,0.3-0.4,0.5-0.3c0.2,0.1,0.4,0.3,0.3,0.5l-14.5,62C380.1,459.5,380,459.6,379.8,459.6z"/>
				</g>
			</g>
			<g>
				<path class="st1" d="M427.4,380.3c0,0,4.6,35.3-37.6,78.8h-8.2C381.7,459.2,387.4,414,427.4,380.3z"/>
				<g>
					<path class="st0" d="M385.9,459.6c-0.1,0-0.1,0-0.2,0c-0.2-0.1-0.3-0.4-0.2-0.6l32.6-62c0.1-0.2,0.4-0.3,0.6-0.2
						c0.2,0.1,0.3,0.4,0.2,0.6l-32.6,62C386.2,459.5,386.1,459.6,385.9,459.6z"/>
				</g>
			</g>
		</g>
		<g>
			<path class="st0" d="M395,459.2c0,0,10.8-15.8,19.7-16c8.8-0.2,2.8,9.3,2.8,9.3s6.2-3.2,10.1-2s0,5.7,0,5.7s10.2-2.3,6.2,3
				L395,459.2z"/>
			<path class="st0" d="M429.7,438.2c-4,0-6.6,7.6-2.1,6.8C432.1,444.1,433.7,438.2,429.7,438.2z"/>
			<path class="st0" d="M437,447.9c-2.7-0.7-5.8,4-2.6,4.2C437.5,452.3,439.7,448.6,437,447.9z"/>
		</g>
	</g>
</g>
<g id="BRANCH">
	<g>
		<path class="st1" d="M362.8,265.8c0,0-3.6-6-9.6-9l-2.2,1.8c0,0,9,10.9,10.2,24L362.8,265.8z"/>
		<path class="st1" d="M393.2,253c0,0-12.3,9.2-21,25c-1.2,10-2.3,19.8-3,27.3c-2,23.7-15.3,148.2-15.3,148.2h-9.4
			c0,0,16.1-176.8,17.6-187.8s3.6-35.3,3.6-35.3l16.9-9.7c0,0-2.3,6.6-3.6,11c-0.6,2.1-2.4,13.5-4.3,27.5l13.1-13L393.2,253z"/>
		<path class="st0" d="M387.9,246.1c0,0,4.6,0.1,5.4,6.9C393.2,253,387.1,252.4,387.9,246.1z"/>
		<path class="st0" d="M365.8,230.4c0,0,5.9,1.1,7.7,0.4s9.2-10.1,9.2-10.1L365.8,230.4z"/>
		<g>
			<path class="st0" d="M359.3,374.6C359.3,374.6,359.3,374.6,359.3,374.6c-0.3,0-0.5-0.3-0.4-0.5c0-0.2,3.8-21.6,4.2-30.3
				c0.3-6.8,0.1-26,0-36.3c0-3.2,0-5.7,0-6.9c0-3.2,0.8-9,1.8-15.6c0.5-3.7,1.1-7.6,1.6-11.5c1.3-10.7,3.5-39.2,3.5-39.4
				c0-0.2,0.2-0.4,0.5-0.4c0.2,0,0.4,0.2,0.4,0.5c0,0.3-2.2,28.7-3.5,39.5c-0.5,3.9-1,7.8-1.6,11.5c-0.9,6.6-1.8,12.3-1.8,15.5
				c0,1.2,0,3.6,0,6.9c0.1,10.3,0.2,29.5,0,36.3c-0.3,8.8-4.1,30.2-4.2,30.4C359.7,374.5,359.5,374.6,359.3,374.6z"/>
		</g>
		<g>
			<path class="st0" d="M351.4,398.1C351.4,398.1,351.3,398.1,351.4,398.1c-0.3,0-0.5-0.3-0.4-0.5c0-0.3,4.8-33.1,6.3-45.9
				c1.5-12.8,3.4-47.5,3.4-47.8c0-0.2,0.2-0.4,0.5-0.4c0.2,0,0.4,0.2,0.4,0.5c0,0.3-1.9,35-3.4,47.9c-1.5,12.9-6.3,45.6-6.4,46
				C351.8,397.9,351.6,398.1,351.4,398.1z"/>
		</g>
		<g>
			<path class="st0" d="M353.3,452.6c-0.2,0-0.4-0.2-0.4-0.4c-0.1-1.3-1.6-32.3,0-41.6c1.7-9.4,2.6-22.2,2.5-23
				c0-0.2,0.1-0.5,0.3-0.5c0.2-0.1,0.5,0.1,0.5,0.3c0.2,0.9-0.8,14-2.5,23.3c-1.6,9.2,0,41.1,0,41.4
				C353.8,452.4,353.6,452.6,353.3,452.6C353.3,452.6,353.3,452.6,353.3,452.6z"/>
		</g>
	</g>
</g>
<g id="BACK_OF_SHIRT">
	<path class="st3" d="M167.7,275l-8.3,5.9c0,0-6.7,21.8,43.3,21.1s81.1-29.6,76.2-51.6l-13.8-5.1L167.7,275z"/>
</g>
<g id="LEFT_FEET">
	<g>
		<g>
			<path class="st0" d="M234.8,234.7c0,0,64,37.8,65.7,40c1.7,2.2,4.2,13.3,4.2,15.7c0,2.3-29.5,56.2-29.5,56.2s-12.3-2.5-12.3-3
				s13.7-51.8,13.7-51.8s-48.5-8.5-71-20.3C183,259.5,200.7,219.7,234.8,234.7z"/>
			<g>
				<path class="st1" d="M269.5,341.8c0,0-0.1,0-0.1,0c-0.2-0.1-0.3-0.3-0.3-0.5l15.2-45.5c0-0.1,0.1-0.2,0.2-0.2
					c1.9-1.3,4.1-2.8,4.8-3.5c-1.1-0.2-4.8-0.1-8,0.2c-0.2,0-0.4-0.1-0.4-0.3s0-0.4,0.2-0.5c3-2,7.9-5.6,8.3-6.8
					c-0.5-0.6-5.9-0.4-10.7,0.2c-0.1,0-0.3,0-0.4-0.2c-0.1-0.1-0.1-0.3-0.1-0.4c0.4-1.1,1.3-4.1,0.8-5.2
					c-1.2-1.3-30.7-13.4-50.3-21.3c-0.2-0.1-0.3-0.3-0.2-0.6c0.1-0.2,0.3-0.3,0.6-0.2c11.7,4.7,50,20.2,50.7,21.7
					c0.6,1.3-0.2,3.9-0.6,5.2c3-0.4,9.8-1,10.8,0.2c0.2,0.2,0.2,0.5,0.1,0.8c-0.5,1.5-5,4.7-7.3,6.3c4.6-0.3,7.1-0.2,7.4,0.3
					c0.1,0.2,0.1,0.3,0.1,0.5c-0.3,0.9-3.9,3.3-5.2,4.1l-15.1,45.4C269.8,341.6,269.7,341.8,269.5,341.8z"/>
			</g>
		</g>
		<g>
			<path class="st4" d="M263.8,342.6l-3.4,18.7c0,0,7.8,1.7,7.8,1.4s5.8-17.4,5.8-17.4L263.8,342.6z"/>
			<g>
				<path class="st2" d="M306.9,384.8c-0.1,2.4-0.4,4.2-0.4,4.2l-27.6,1.8c-0.6-2.4-1.6-4.4-3.4-4.1c-1.7,0.3-2.3,2.1-2.4,4.3
					l-16.2,0.9c0,0-0.3-1.9-0.6-5c-0.7-6.5-1.5-18.4,0.1-29c0,0,8.1-1.6,15.8,0.2c1.8,0.4,3.5,1,5.1,1.9c0,0-2.2,7.6-2,8.3
					s10.4,5.4,15.2,6.2c0.4,0.1,0.9,0.1,1.3,0.2c4.5,0.4,10-1.1,13.1,0.7C307,376.6,307.1,381.2,306.9,384.8z"/>
				<g>
					<path class="st4" d="M289.7,378.8c-1.5,0-17.1-5.2-19.5-7.2c-0.2-0.2-0.5-0.4-0.5-0.8c0-1,0.9-6.5,1.7-10.8
						c0-0.2,0.3-0.4,0.5-0.3c0.2,0,0.4,0.3,0.3,0.5c-1.1,6-1.7,9.9-1.7,10.7c0.6,1.3,17.2,7.2,19,7.2c0,0,0.2-0.2,0.9-1.5
						c0.1-0.2,0.4-0.3,0.6-0.2c0.2,0.1,0.3,0.4,0.2,0.6C290.5,378.4,290.1,378.8,289.7,378.8C289.7,378.8,289.7,378.8,289.7,378.8z"
						/>
				</g>
				<path class="st0" d="M306.9,384.8c-0.1,2.4-0.4,4.2-0.4,4.2l-27.6,1.8c-0.6-2.4-1.6-4.4-3.4-4.1c-1.7,0.3-2.3,2.1-2.4,4.3
					l-16.2,0.9c0,0-0.3-1.9-0.6-5L306.9,384.8z"/>
			</g>
		</g>
		<path class="st1" d="M260.5,336c0,0,15.2,2.8,23.4,4.6l-6.5,12.2c0,0-8.3,0.9-19.1-2.8L260.5,336z"/>
	</g>
</g>
<g id="RIGHT_FEET">
	<g>
		<polygon class="st4" points="168.9,400.8 168.7,422.6 177.7,422.6 178.4,400.9 		"/>
		<g>
			<path class="st2" d="M185.8,451.1c0,0-2.1,1.6-4.8,3.4c-0.1-1.4-0.3-2.8-0.7-2.8c-0.6,0-0.8,2.3-0.8,3.9c-3,2-6.2,4-7.9,4.6
				c-3.6,1.2-24,0.1-24,0.1s-0.3-2.1-0.3-4.8c-0.1-3.8,0.1-8.8,1.7-11.2c2.9-4.1,10-4.4,10-4.4s5.4-11.6,5.6-12.9
				c0.3-1.2-1.5-7.6-1.5-7.6s8.6-2.2,19.9-0.9l-1.5,7.4c0,0,2.3,10.2,3.7,20.1C185.4,447.8,185.6,449.5,185.8,451.1z"/>
			<g>
				<path class="st4" d="M165.7,442.4c-0.1,0-0.2,0-0.3-0.1c0,0-1.5-1.4-4.8-1.8c-0.2,0-0.4-0.2-0.4-0.5s0.2-0.4,0.5-0.4
					c2.6,0.3,4.2,1.2,4.9,1.7l6.2-13.7c-2.1-0.4-4.2-0.5-6-0.2c-0.2,0-0.5-0.1-0.5-0.4c0-0.2,0.1-0.5,0.4-0.5
					c2.1-0.3,4.4-0.2,6.8,0.3c0.1,0,0.2,0.1,0.3,0.2s0.1,0.3,0,0.4l-6.6,14.8C166,442.3,165.9,442.4,165.7,442.4
					C165.7,442.4,165.7,442.4,165.7,442.4z"/>
			</g>
			<path class="st0" d="M185.8,451.1c0,0-2.1,1.6-4.8,3.4c-0.1-1.4-0.3-2.8-0.7-2.8c-0.6,0-0.8,2.3-0.8,3.9c-3,2-6.2,4-7.9,4.6
				c-3.6,1.2-24,0.1-24,0.1s-0.3-2.1-0.3-4.8c6,0.4,21.5,1.3,23,0.7c1.5-0.6,10.9-7.2,15-10.1C185.4,447.8,185.6,449.5,185.8,451.1z
				"/>
		</g>
		<path class="st0" d="M172.3,268c0,0-2.7,60.7-4,77c-1.3,16.3-1.7,57.7-1.7,57.7s12.7,0.7,13-0.3c0.3-1,15.7-53,16.4-60
			s25-62.3,28.7-82C228.3,240.7,182,220,172.3,268z"/>
		<g>
			<path class="st1" d="M177.7,398.3C177.7,398.3,177.7,398.3,177.7,398.3c-0.3,0-0.5-0.2-0.4-0.5c1.9-17.4,7.6-34.3,9.1-38.8
				c-1.1,0.6-2.5,1.2-3.3,0.9c-0.3-0.1-0.4-0.3-0.5-0.6c-0.3-1.3,2.6-7.1,3.4-8.8c-6.2-8.3-5.9-9-5.8-9.2c0.2-0.3,0.5-1,8.9,1.2
				c11.2-55,17-83.6,17-83.6c0-0.2,0.3-0.4,0.5-0.3c0.2,0,0.4,0.3,0.3,0.5c0,0-5.8,28.8-17.1,84c0,0.1-0.1,0.2-0.2,0.3
				c-0.1,0.1-0.2,0.1-0.3,0.1c-3.4-0.9-7.3-1.7-8.3-1.6c0.4,1.1,3.1,5,5.8,8.5c0.1,0.1,0.1,0.3,0,0.5c-1.8,3.6-3.6,7.8-3.5,8.5
				c0.3,0.2,2-0.5,3.5-1.4c0.2-0.1,0.4-0.1,0.5,0c0.1,0.1,0.2,0.3,0.1,0.5c-0.1,0.2-7.3,19.7-9.5,39.6
				C178.1,398.1,177.9,398.3,177.7,398.3z M181.1,341.6"/>
		</g>
		<path class="st1" d="M162.4,394.2l23.9,0.4l-3,14.6l-18.5,0.4C164.8,409.6,163.4,400.4,162.4,394.2z"/>
	</g>
</g>
<g id="BAG">
	<g>
		<g>
			<path class="st3" d="M146.5,124.2c0,0-10.7,13.5-8.2,31s14,23.2,14,23.2s43.5-11,54.7-11s28.8,3.5,28.8,3.5s5.5-15,5.2-25.8
				s-8-19.5-8.5-19.5s-17.8,2.3-33.8,3.3C182.7,129.8,146.5,124.2,146.5,124.2z"/>
			<g>
				<path class="st0" d="M154.5,176.1c-0.1,0-0.1,0-0.2,0c-0.2-0.1-0.3-0.4-0.2-0.6c5.3-11.3,6.9-20.5,5-28.1
					c-2.1-8.2-9.4-16.4-11.2-18.4c-1.3,2.6-6.6,13.9-6.9,20.4c-0.4,7.3,6.6,18.8,10.2,19.9c0.3,0.1,0.6,0,0.9-0.2
					c2.3-1.9,3.4-13.1,2.9-17.7c-0.5-5-4.9-12.2-6.1-12.5c-1,0.4-4.3,10.4-4.3,13.2c0,2.3,4.7,7.6,5.9,8.2c0.8-0.7,1.7-7.5,1.1-9.8
					c-0.4-1.5-1.4-2.9-1.9-3.6c-0.4,1.2-1.3,3.7-1.3,5.4c0,0.2-0.2,0.4-0.4,0.4s-0.4-0.2-0.4-0.4c0-2.6,1.6-6.3,1.7-6.4
					c0.1-0.1,0.2-0.2,0.3-0.3c0.1,0,0.3,0,0.4,0.1c0.1,0.1,2,2,2.6,4.4c0.5,2.1-0.1,9.6-1.4,10.7c-0.2,0.2-0.5,0.3-0.8,0.2
					c-1.4-0.5-6.5-6.3-6.5-9c0-2.2,2.9-12.5,4.7-13.9c0.3-0.2,0.5-0.2,0.7-0.2c1.7,0.5,6.2,8.3,6.7,13.2c0.4,4.2-0.4,16.1-3.3,18.5
					c-0.5,0.4-1.1,0.5-1.7,0.4c-3.9-1.2-11.2-13.1-10.8-20.8c0.4-7.5,7-20.7,7.3-21.3c0.1-0.1,0.2-0.2,0.3-0.2c0.1,0,0.3,0,0.4,0.1
					c0.1,0.1,9.4,9.6,11.9,19.2c2,7.8,0.4,17.2-5,28.7C154.8,176,154.7,176.1,154.5,176.1z"/>
			</g>
		</g>
		<path class="st0" d="M162.2,171.5c0,0-3.7,60.6-2.8,70.8s36,12.2,36,12.2v-86.3L162.2,171.5z"/>
	</g>
</g>
<g id="SHIRT">
	<g>
		<path class="st1" d="M182.6,231.4c0,0-3.2,4-3.8,5.1s-19.5,44.4-19.5,44.4s15,10.2,42.2,5.6s44.6-24.4,57-31.1s20.2-5,20.2-5
			s-19.9-14.1-29.1-20L182.6,231.4z"/>
		<g>
			<path class="st0" d="M184.8,273.4c-0.2,0-0.4-0.2-0.4-0.4c0-0.2,0.2-0.4,0.4-0.4c0.2,0,19.6-1,36.1-14.7
				c16.8-13.9,26.2-14.6,26.6-14.6c0.2,0,0.4,0.2,0.5,0.4c0,0.2-0.2,0.4-0.4,0.5c-0.1,0-9.6,0.7-26.1,14.4
				C204.7,272.4,185,273.4,184.8,273.4C184.8,273.4,184.8,273.4,184.8,273.4z"/>
		</g>
		<g>
			<path class="st0" d="M190.3,258.8c-0.2,0-0.4-0.1-0.4-0.3c0-0.2,0.1-0.5,0.3-0.5c0.2,0,18.1-3.7,32-11.6c0.2-0.1,0.5,0,0.6,0.2
				c0.1,0.2,0,0.5-0.2,0.6C208.6,255,190.6,258.7,190.3,258.8C190.4,258.8,190.4,258.8,190.3,258.8z"/>
		</g>
	</g>
</g>
<g id="LEFT_ARM">
	<g>
		<g>
			<path class="st4" d="M226.4,109.7c0,0-2.5-1.1-3.1-1.2s-1.6,0.6-1.2,1.3c0.4,0.8,6.1,3.1,6.2,3.2s2.7,2.7,2.8,2.7s3.4,0.1,3.4,0
				S226.4,109.7,226.4,109.7z"/>
			<path class="st4" d="M236.4,119.3c0,0-4.5,0.1-5.3-0.1c-0.8-0.2-3.7-3.4-4.1-3.8c-0.4-0.3-2.7-1.6-2.9-2.1
				c-0.2-0.5,1.3-1.1,3.1,0.2c1.8,1.2,3.1,1.6,3.1,1.6l3.5,0.5L236.4,119.3z"/>
			<path class="st4" d="M245.1,135.8l-9.4-16.6c0,0-2-0.8-2.4-1.6s-3-4.7-3-4.7s-7.8-3.8-8.3-4.2c-0.5-0.5-0.2-2.4,1.9-1.4
				s9.5,3.3,10.8,4.3c1.2,1,6.4,6.6,6.4,6.6l13.7,13L245.1,135.8z"/>
		</g>
		<g>
			<g>
				<path class="st2" d="M232.2,141.2l15.9,7.9l-3.7-10.5l16.3-2.3c0,0,16.8,28.7,17.3,31.8c0.5,3.2-0.5,12.3-2.3,13.7
					c-1.8,1.3-28.3-1.1-43.1-5.6S211,135,232.2,141.2z"/>
				<g>
					<path class="st4" d="M264.4,170.9c-0.1,0-0.3-0.1-0.4-0.2c-5.2-8.3-13.9-18.4-14-18.5c-0.2-0.2-0.1-0.5,0-0.6
						c0.2-0.2,0.5-0.1,0.6,0c0.1,0.1,8.8,10.3,14,18.6c0.1,0.2,0.1,0.5-0.1,0.6C264.5,170.9,264.5,170.9,264.4,170.9z"/>
				</g>
				<g>
					<path class="st4" d="M252,171.9c-0.2,0-0.4-0.2-0.4-0.4c0-4.4-0.8-10.3-1.3-13.8c-0.2-1.6-0.4-2.6-0.4-3c0-0.2,0.2-0.4,0.4-0.4
						s0.4,0.2,0.4,0.4c0,0.3,0.2,1.4,0.3,2.8c0.5,3.5,1.3,9.5,1.3,13.9C252.4,171.7,252.2,171.9,252,171.9z"/>
				</g>
			</g>
			<g>
				<path class="st5" d="M245.1,145.2c0,0-2.8-6.6-3-7.3s5.6-6.5,9.2-7.7s11,4.2,11.6,4.8c0.6,0.7,2.6,5.6,2.6,5.6l-1.3,1.2
					l-0.8-1.3c0,0-5.8-1.3-8.8-1.2c-3.1,0.2-7.8,5.2-7.8,5.2l0.6,1.5L245.1,145.2z"/>
				<g>
					<path class="st4" d="M248.1,143.5c-0.1,0-0.2,0-0.3-0.1c-0.2-0.2-0.1-0.4,0-0.6c1.9-1.7,4.5-3.7,6.6-3.8
						c2.2-0.1,5.6,0.5,7.5,0.9c0.2,0,0.4,0.3,0.3,0.5c0,0.2-0.3,0.4-0.5,0.3c-1.8-0.4-5.2-1-7.3-0.9c-1.4,0.1-3.6,1.4-6,3.6
						C248.3,143.5,248.2,143.5,248.1,143.5z"/>
				</g>
			</g>
		</g>
	</g>
</g>
<g id="BODY">
	<g>
		<path class="st5" d="M181.4,223.5l-1.5,8.8c0,0,23.2,9,42.1,8.5s30-9.9,30-9.9l-1.2-8.4C228.9,231.8,205.6,231.5,181.4,223.5z"/>
		<path class="st2" d="M255,215c0.2,1.2-4.2,9-4.2,9s-8.4,3.9-18.9,6.5c-1.7,0.4-3.4,0.8-5.1,1.1c-4.1,0.8-8.2,1.2-12.2,1.1
			C198,232.2,179,224,179,224s3-21,2-30.8s-2.5-43.6-2.5-43.6l17.5-11.5c9.8-6,14.5-3,21.6-1.5c7.1,1.5,14.6,4.6,14.6,4.6
			s4.5,26,6.5,36.8s9.5,25,9.5,25s-0.8,4.2-0.8,5S254.8,213.8,255,215z"/>
		<g>
			<path class="st4" d="M215.8,233.2c-0.4,0-0.9,0-1.3,0c-11.7-0.4-24.6-4.6-31.2-7c-0.2-0.1-0.3-0.3-0.3-0.6s0.3-0.3,0.6-0.3
				c6.6,2.5,19.4,6.6,30.9,7c3.6,0.1,7.7-0.3,12.2-1.1c1.7-0.3,3.4-0.7,5.1-1.1c7.2-1.8,13.5-4.3,16.6-5.6c0.2-0.1,0.5,0,0.6,0.2
				c0.1,0.2,0,0.5-0.2,0.6c-3.1,1.3-9.4,3.8-16.7,5.6c-1.7,0.4-3.5,0.8-5.2,1.1C222.9,232.8,219.2,233.2,215.8,233.2z"/>
		</g>
		<path class="st1" d="M220.8,136.2L220.8,136.2c-0.3,0.6-0.4,1.3-0.1,1.9c2.5,5.5,14.8,33.4,21.7,52.1c0,0,0.9-10.3,0.2-15.8
			c-0.7-5.5-5.3-24.3-9.3-34c-0.1-0.2-0.1-0.3-0.2-0.4l0,0c-0.5-0.9-1.4-1.6-2.4-2l-7.3-2.6C222.4,134.9,221.3,135.3,220.8,136.2z"
			/>
		<g>
			<g>
				<path class="st4" d="M204.6,175.4c-0.2,0-0.4-0.2-0.4-0.4c-1-7.1-3.9-18.8-3.9-19c-0.1-0.2,0.1-0.5,0.3-0.5
					c0.2-0.1,0.5,0.1,0.5,0.3c0,0.1,2.8,11.5,3.9,18.6l0.8-0.1c-0.4-2-1.9-10-3.2-14.9c-0.1-0.2,0.1-0.5,0.3-0.5
					c0.2-0.1,0.5,0.1,0.5,0.3c1.5,5.6,3.3,15.3,3.3,15.4c0,0.1,0,0.2-0.1,0.3c-0.1,0.1-0.2,0.2-0.3,0.2L204.6,175.4
					C204.7,175.4,204.6,175.4,204.6,175.4z"/>
			</g>
			<path class="st1" d="M204.6,175c0,0-0.6,7.3-0.2,7.8c0.4,0.4,4.2,0.2,4.4-0.4c0.2-0.6-2.5-7.5-2.5-7.5L204.6,175z"/>
		</g>
		<g>
			<g>
				<path class="st4" d="M225.2,173.1c-0.2,0-0.4-0.1-0.4-0.4c-1.2-7-3.6-15.1-3.6-15.2c-0.1-0.2,0.1-0.5,0.3-0.5
					c0.2-0.1,0.5,0.1,0.5,0.3c0,0.1,2.4,7.9,3.6,14.9l0.8-0.1c-0.6-2.6-3.6-16.1-5.5-21.6c-0.1-0.2,0-0.5,0.3-0.5
					c0.2-0.1,0.5,0,0.5,0.3c2.1,6.1,5.6,22,5.7,22.1c0,0.1,0,0.2-0.1,0.3c-0.1,0.1-0.2,0.2-0.3,0.2L225.2,173.1
					C225.3,173.1,225.2,173.1,225.2,173.1z"/>
			</g>
			<path class="st1" d="M225.2,172.6c0,0-0.4,7.3,0,7.8c0.4,0.4,4.2,0.1,4.4-0.5c0.2-0.6-2.7-7.4-2.7-7.4L225.2,172.6z"/>
		</g>
		<path class="st6" d="M231.9,230.5c-1.7,0.4-3.4,0.8-5.1,1.1l-6.7-11.2c0,0,4-13,3.9-13.2s-5.7-6.2-5.7-6.2s0.8-7.1,0.7-8.9
			c-0.1-1.8-4.6-22.7-4.6-23.6c-0.1-2.9-0.8-7.6,1.4-2.8c2.2,4.8,6.9,24.9,6.9,26.1c0,1.2-0.3,8.1-0.3,8.1s6.1,5.2,6.1,5.8
			s-3.9,14.3-3.9,14.3L231.9,230.5z"/>
		<g>
			<path class="st4" d="M209.1,221.6c-4.7,0-9.7-0.5-15.1-1.8c-0.2-0.1-0.4-0.3-0.3-0.5c0.1-0.2,0.3-0.4,0.5-0.3
				c29.6,7.2,48.8-9.2,48.9-9.4c0.2-0.2,0.5-0.1,0.6,0c0.2,0.2,0.1,0.4,0,0.6C243.6,210.3,230.5,221.6,209.1,221.6z"/>
		</g>
		<g>
			<path class="st4" d="M205.8,211.3c-0.2,0-0.4-0.2-0.4-0.4c0-0.2,0.1-0.4,0.4-0.5c0.2,0,18.9-2.4,29.2-8.1c0.2-0.1,0.5,0,0.6,0.2
				c0.1,0.2,0,0.5-0.2,0.6C224.9,208.8,206.1,211.2,205.8,211.3C205.9,211.3,205.9,211.3,205.8,211.3z"/>
		</g>
		<g>
			<path class="st2" d="M182.2,150.7c0,0-7.1-10.1-7.2-10.7s4.8-9.6,6.2-10.6c1.3-1,16.5-3.9,23.8-4.3c7.3-0.4,15.6,2.2,16.3,2.6
				c0.8,0.3,4.9,3.2,5.2,5.2c0.3,2,0.7,18.3,0.7,18.3L182.2,150.7z"/>
			<g>
				<path class="st4" d="M199.4,148.6c-0.1,0-0.3-0.1-0.3-0.2c-0.4-0.6-10.4-13.5-10.9-14.3c-0.1-0.2-0.1-0.4,0-0.5
					c0.6-1.4,12.9-4.2,15.9-4.5c3.4-0.4,10.5,2.4,13.4,3.6l0.1,0.1c0.3,0.1,0.7,0.3,0.1,13.9c0,0.2-0.2,0.4-0.4,0.4
					c-0.2,0-0.4-0.2-0.4-0.4c0.2-4.6,0.4-11.9,0.2-13.2c-5.9-2.5-10.7-3.8-12.9-3.6c-3.8,0.4-13.6,3-15,4
					c1.4,1.9,10.7,13.9,10.8,14.1c0.1,0.2,0.1,0.5-0.1,0.6C199.6,148.5,199.5,148.6,199.4,148.6z"/>
			</g>
		</g>
		<path class="st1" d="M194.4,141.2c0,0,9-5.1,11.9-5.5s11,2.4,11,2.4l-0.5,31.3c0,0.7-0.9,1-1.3,0.4L194.4,141.2z"/>
		<path class="st1" d="M187.5,140.4c1,0.1,1.9,0.7,2.3,1.6c2.5,4.7,9.6,20.8,5.9,42.9c-4.5,26.5-17.7,36.3-17.7,36.3v-17.7
			c0,0,7.2-14.2,7.2-28.2c0-11.6-5.5-22-7.4-25.2c-0.4-0.7-0.5-1.5-0.4-2.2l0,0c0.2-0.8,0.6-1.4,1.2-1.9l6.8-5
			C186,140.5,186.7,140.3,187.5,140.4L187.5,140.4z"/>
		<g>
			<g>
				<path class="st4" d="M214.9,184.8c-0.1,0-0.2,0-0.3-0.1c-0.1-0.1-0.1-0.2-0.1-0.3c0-0.1,0.1-9.5-0.2-14.1c0-0.2,0.1-0.4,0.3-0.5
					l2.8-0.6c0.2,0,0.4,0.1,0.5,0.2c0,0.1,2.7,6.4,4.3,14c0,0.2-0.1,0.4-0.3,0.5C221.7,183.9,219.7,184.7,214.9,184.8
					C214.9,184.8,214.9,184.8,214.9,184.8z M215.1,170.6c0.3,4.1,0.2,11.5,0.2,13.4c3.3-0.1,5.1-0.5,5.8-0.7
					c-1.3-6.4-3.5-11.7-4-13.1L215.1,170.6z"/>
			</g>
			<path class="st1" d="M214.2,175.1c0,0,2.8-0.4,5.2-1.4c0,0,2.6,6,3.1,10.4c0,0-5.5,1-8.7,0.9C213.9,185,214.2,178.4,214.2,175.1z
				"/>
		</g>
	</g>
</g>
<g id="RIGHT_ARM">
	<g>
		<g>
			<path class="st2" d="M178.5,149.6c0,0-33.4,35.5-41.1,48c0,0,7.9,16.8,13.6,23.9l15.4-9.4l-3.9-13.8l20-8.5
				C182.5,189.9,189.7,166.7,178.5,149.6z"/>
			<g>
				<path class="st4" d="M152.7,199.4c-4.1,0-7.5-0.7-10-1.5c-0.2-0.1-0.4-0.3-0.3-0.5c0.1-0.2,0.3-0.4,0.5-0.3
					c3.7,1.1,9.6,2.2,17,0.7c0.3-0.1,0.4-0.1,0.5-0.1c0.2,0,0.4,0.2,0.4,0.4c0,0.2-0.2,0.4-0.4,0.4c-0.1,0-0.2,0-0.3,0.1
					C157.5,199.2,155,199.4,152.7,199.4z"/>
			</g>
		</g>
		<path class="st5" d="M147.4,221.6c0,0,3.8-5.6,8.6-7.9c6.3-2.9,12.1-2.3,12.1-2.3l3.1,8.8c0,0-4.2,5.2-7.8,7.5s-12.2,2-12.2,2
			L147.4,221.6z"/>
		<g>
			<path class="st4" d="M150.7,218.1c-0.1,0-0.2,0-0.3-0.1c-0.2-0.2-0.2-0.4,0-0.6c1.8-1.8,3.7-3.2,5.4-4c3.7-1.7,7.3-2.2,9.6-2.4
				c0.2,0,0.4,0.2,0.5,0.4c0,0.2-0.2,0.4-0.4,0.5c-2.2,0.1-5.7,0.6-9.3,2.3c-1.7,0.8-3.4,2.1-5.2,3.8
				C150.9,218.1,150.8,218.1,150.7,218.1z"/>
		</g>
		<path class="st4" d="M155.6,225.4c0,0,5.4-5.9,11.9-5.9c0,0,6.7,13.8,13.2,23.8l-3.9,7C176.8,250.4,165.3,238.4,155.6,225.4z"/>
		<path class="st2" d="M181.8,240c0,0-3.7,7.1-9.4,17.6l3.9,3.2c0,0,7.8-8.5,11.6-18.9L181.8,240z"/>
	</g>
</g>
<g id="PONYTAIL">
	<g>
		<path class="st3" d="M192.3,104.1c0,0-4.2-4.2-11.4-2.9c-7.2,1.3-9.2,8.1-4.3,12.3c4.1,3.5,2,7.4-1.8,7.1
			c-1.4-0.1-2.5,1.2-2.1,2.6c0.7,2.3,2.8,4.9,8.9,4.6c10.8-0.4,11.4-12.1,4.1-15.2c-7.3-3.1-3.2-8.5,5.1-5.2L192.3,104.1z"/>
		<path class="st1" d="M195.4,103.7c0,0-4.5-1.4-5.7,0.7c-1.2,2.1-1.2,4.8,4.1,4.6L195.4,103.7z"/>
	</g>
</g>
<g id="HEAD">
	<g>
		<g>
			<path class="st4" d="M210.7,127.2l-0.4,6.5l-0.7,10.3c-6.2,2.2-8.3-1.9-8.3-1.9l1.8-15.2l0.2-1.9L210.7,127.2z"/>
			<path class="st3" d="M210.7,127.2l-0.4,6.5c-4.3-1.2-6.4-4.9-7.2-6.9l0.2-1.9L210.7,127.2z"/>
		</g>
		<g>
			<path class="st3" d="M216.5,107.1c0.1,0.1,1.5,3.5,0.1,7.7c-1.4,4.2-4.5-8.1-4.5-8.1L216.5,107.1z"/>
			<path class="st4" d="M198.7,112.3c0,0.2,1.3,7.4,3.2,12.2c1.9,4.8,8.5,6.2,11.3,5.3s6.2-13.5,1.8-22.8
				C210.7,97.7,196.6,100.9,198.7,112.3z"/>
			<path class="st3" d="M198.2,118.8l4.8-0.4c0,0-0.7-4-0.2-6.2c0.4-2.2,4-2.8,4.5-5.5s0.2-5.8-5.4-4.9
				C196.2,102.6,194.1,110.2,198.2,118.8z"/>
			<g>
				<path class="st5" d="M217.3,108.2c0,0-7,0.2-15.5,3.3c-2.7,1-5.5,2.2-8.3,3.8c0,0-1.2-6.8-0.4-10.6c0.8-3.8,9.8-8.3,15.2-8.1
					c0.1,0,0.2,0,0.3,0C213.8,97.3,217.3,108.2,217.3,108.2z"/>
				<path class="st1" d="M217.3,108.2c0,0-7,0.2-15.5,3.3c-0.2-3-0.4-8.6,0.1-10.5c0.4-1.6,3-3.6,6.7-4.3
					C213.8,97.3,217.3,108.2,217.3,108.2z"/>
				<path class="st3" d="M200.9,111.8c0,0,4.6-4.9,7.5-7c2.9-2.1,10.3-3.4,18.2-2.3l-9.2,5.7C217.3,108.2,207.8,108.6,200.9,111.8z"
					/>
			</g>
			<g>
				<path class="st4" d="M202,119c-0.7-3.1-3.3-5.4-6.4-5.5c-1,0-2.2,0.2-3.3,0.8c-4.4,2.3-0.3,12.1,10.6,9.2L202,119z"/>
				<g>
					<path class="st3" d="M201.3,122c-0.1,0-0.2-0.1-0.3-0.2c-2.6-6.2-7.3-5-7.5-4.9c-0.2,0-0.3,0-0.4-0.2s0-0.3,0.2-0.4
						c0.1,0,5.4-1.5,8.2,5.3c0.1,0.2,0,0.3-0.2,0.4C201.4,121.9,201.3,122,201.3,122z"/>
				</g>
				<g>
					<path class="st3" d="M196.7,121.6C196.7,121.6,196.7,121.6,196.7,121.6c-0.2-0.1-0.3-0.2-0.3-0.4c0-0.1,0.7-2.3,1.6-3.8
						c0.1-0.1,0.3-0.2,0.4-0.1c0.1,0.1,0.2,0.3,0.1,0.4c-0.9,1.4-1.5,3.6-1.5,3.6C197,121.6,196.9,121.6,196.7,121.6z"/>
				</g>
			</g>
		</g>
	</g>
</g>
<g id="FACE">
	<g>
		<path class="st3" d="M205.3,114.7c0,0,1-2.9,3.2-2.1c0,0,0.1-1.3,0.6-1.4c0.5-0.1,0.7,2.3,0.7,2.3S207.3,113.7,205.3,114.7z"/>
		<path class="st3" d="M216.5,114.3c0,0-0.3-2.7-1.7-1.7c0,0,0.1-1.3-0.2-1.3c-0.7,0-0.6,2.3-0.6,2.3S215.5,113.4,216.5,114.3z"/>
		<g>
			<path class="st3" d="M212.5,122.3c-0.1,0-0.2-0.1-0.3-0.2c-0.1-0.1,0-0.3,0.1-0.4c0.5-0.2,1.6-1,1.7-1.7c0-0.9-1.4-3.3-1.8-3.9
				c-0.1-0.1-0.1-0.3,0.1-0.4c0.1-0.1,0.3-0.1,0.4,0.1c0,0,2,3,1.9,4.2c0,1.2-1.8,2.2-2,2.3C212.6,122.3,212.5,122.3,212.5,122.3z"
				/>
		</g>
		<g>
			<path class="st3" d="M213.7,124.8c0,0-1,1-2.1,1.5c-1.2,0.7-2.7,0.9-3.2-1.1c-0.2-0.6-0.3-1.3-0.2-2.3
				C208.1,122.9,209.6,124.4,213.7,124.8z"/>
			<path class="st7" d="M211.6,126.3c-1.2,0.7-2.7,0.9-3.2-1.1C209.4,125.1,210.6,125.3,211.6,126.3z"/>
		</g>
		<g>
			<ellipse class="st3" cx="208.4" cy="117.5" rx="1.1" ry="1.4"/>
			<circle class="st7" cx="208.6" cy="117" r="0.3"/>
		</g>
		<g>
			<ellipse class="st3" cx="215.1" cy="117.5" rx="1.1" ry="1.4"/>
			<circle class="st7" cx="215.4" cy="117" r="0.3"/>
		</g>
	</g>
</g>
</svg>
