<svg xmlns="http://www.w3.org/2000/svg" viewBox="0 0 1015 676"><defs><style>.cls-1{fill:#fff;}.cls-2{fill:#444;}.cls-3{fill:#b5b5b5;}.cls-4{fill:#f15230;}</style></defs><title>itinerary_1</title><g id="Layer_2" data-name="Layer 2"><g id="Layer_2-2" data-name="Layer 2"><rect class="cls-1" y="1" width="1015" height="675" rx="37.09" ry="37.09"/><path class="cls-2" d="M37.11,0H977.89A37.11,37.11,0,0,1,1015,37.11V106a0,0,0,0,1,0,0H0a0,0,0,0,1,0,0V37.11A37.11,37.11,0,0,1,37.11,0Z"/><rect class="cls-3" x="29" y="158.12" width="113.07" height="19.41" rx="9.71" ry="9.71"/><rect class="cls-3" x="29" y="205.12" width="113.07" height="19.41" rx="9.71" ry="9.71"/><rect class="cls-3" x="29" y="346.1" width="113.07" height="19.41" rx="9.71" ry="9.71"/><rect class="cls-3" x="29" y="393.1" width="113.07" height="19.41" rx="9.71" ry="9.71"/><rect class="cls-3" x="29" y="252.11" width="113.07" height="19.41" rx="9.71" ry="9.71"/><rect class="cls-3" x="29" y="299.11" width="113.07" height="19.41" rx="9.71" ry="9.71"/><rect class="cls-3" x="29" y="440.09" width="113.07" height="19.41" rx="9.71" ry="9.71"/><rect class="cls-2" x="178" y="156" width="101" height="186" rx="12" ry="12"/><rect class="cls-4" x="178" y="455" width="101" height="188" rx="12" ry="12"/><rect class="cls-2" x="296.25" y="274" width="101" height="127" rx="12" ry="12"/><rect class="cls-3" x="296.08" y="412" width="101" height="231" rx="12" ry="12"/><rect class="cls-3" x="414.33" y="351" width="101" height="93" rx="12" ry="12"/><rect class="cls-4" x="414.33" y="455" width="101" height="188" rx="12" ry="12"/><rect class="cls-2" x="532.5" y="222" width="101" height="169" rx="12" ry="12"/><rect class="cls-4" x="532.5" y="401" width="101" height="242" rx="12" ry="12"/><rect class="cls-3" x="650.67" y="351" width="101" height="228" rx="12" ry="12"/><rect class="cls-3" x="768.83" y="205" width="101" height="239" rx="12" ry="12"/><rect class="cls-4" x="768.83" y="455" width="101" height="188" rx="12" ry="12"/><rect class="cls-2" x="887" y="335" width="101" height="308" rx="12" ry="12"/></g></g></svg>