<svg xmlns="http://www.w3.org/2000/svg" viewBox="0 0 427.57 480.58"><title>Asset 4</title><g id="Layer_2" data-name="Layer 2"><g id="Layer_1-2" data-name="Layer 1"><path d="M427.57,86.18V448c-.13.71-.32,1.41-.39,2.12-1.63,17.72-15.51,30.46-33.36,30.46q-180.15,0-360.31-.05a36.42,36.42,0,0,1-9.58-1.26C9.36,475.24,0,462.49,0,446.8q0-79.86,0-159.73Q0,187,0,87C0,67.46,14.31,53.25,33.79,53.24q14.6,0,29.18,0h2.76c0,5.19-.07,10,0,14.89a70.85,70.85,0,0,0,.6,9.45A49.21,49.21,0,0,0,112,118.87c23.32,1.35,44.46-13.58,50.4-36C163.7,78.1,164,73,164.31,68c.31-4.81.06-9.66.06-14.54H263c0,4.72-.08,9.24,0,13.76a84.14,84.14,0,0,0,.67,10.42c3.49,23.43,23.81,40.87,48.09,41.41,23,.51,44.36-16.29,48.55-39,1.4-7.56.89-15.47,1.23-23.23.05-1.1,0-2.2,0-3.37a15,15,0,0,1,1.49-.19c10.7,0,21.4-.23,32.09.07A32.52,32.52,0,0,1,426.33,78.3C427,80.87,427.17,83.56,427.57,86.18ZM26,453.38H401.21V138.21H26Z"/><path d="M151.24,34c-.71-14.58-8.61-25.46-22.86-31.45a37.82,37.82,0,0,0-6-1.79c-.8-.19-1.6-.37-2.39-.59L119.47,0h-9.19l-.79.36-.34.17c-18.38,3.59-30.26,18-30.31,36.7,0,10.2,0,21.14,0,32.1A46.52,46.52,0,0,0,79.48,77c3,16.84,18.37,29.61,35.43,29.61l1.33,0c18.73-.73,33.7-14.64,34.81-32.36A363.56,363.56,0,0,0,151.24,34Z"/><path d="M348.55,35.48c-.38-14.42-7.57-25.48-20.8-32A38.62,38.62,0,0,0,320.48,1c-1-.27-2-.53-2.92-.83L317,0h-9l-.58.18-.59.2-.25.1C290.1,3.23,278,15.92,276.4,32a162.42,162.42,0,0,0-.46,17.59c0,1.79,0,3.58,0,5.37,0,1.38,0,2.77,0,4.16a139.84,139.84,0,0,0,.45,15.66c1.87,17.89,17.6,31.8,35.51,31.8.61,0,1.22,0,1.83-.05,19.26-1,34.56-16.49,34.83-35.22C348.74,59.92,348.87,47.74,348.55,35.48Z"/><rect x="65.54" y="199.88" width="52.97" height="53.03" rx="5" ry="5"/><rect x="146.68" y="199.88" width="53.01" height="53.01" rx="5" ry="5"/><rect x="227.86" y="199.88" width="52.98" height="52.96" rx="5" ry="5"/><rect x="309.08" y="199.88" width="52.95" height="53.01" rx="5" ry="5"/><rect x="65.54" y="272.07" width="53.06" height="52.99" rx="5" ry="5"/><rect x="146.73" y="272.05" width="52.98" height="53.05" rx="5" ry="5"/><rect x="227.84" y="272.09" width="53.04" height="52.98" rx="5" ry="5"/><rect x="308.99" y="272.09" width="53.04" height="52.98" rx="5" ry="5"/><rect x="65.54" y="344.26" width="53.04" height="52.91" rx="5" ry="5"/><rect x="146.73" y="344.25" width="52.96" height="53" rx="5" ry="5"/><rect x="227.87" y="344.24" width="52.98" height="53" rx="5" ry="5"/><rect x="309" y="344.29" width="53.03" height="52.92" rx="5" ry="5"/></g></g></svg>