<?xml version="1.0" encoding="utf-8"?>
<!-- Generator: Adobe Illustrator 22.1.0, SVG Export Plug-In . SVG Version: 6.00 Build 0)  -->
<svg version="1.1" id="Layer_1" xmlns="http://www.w3.org/2000/svg" xmlns:xlink="http://www.w3.org/1999/xlink" x="0px" y="0px"
	 viewBox="0 0 757 575.3" style="enable-background:new 0 0 757 575.3;" xml:space="preserve">
<style type="text/css">
	.st0{fill:#FFFFFF;}
</style>
<title>Asset 3</title>
<g id="Layer_2_1_">
	<g id="Layer_1-2">
		<path class="st0" d="M617.7,513.3c-2.4,0-4.7-0.3-7-0.9L344.1,441c-14.4-3.8-23-18.6-19.1-33.1c0,0,0,0,0-0.1l97.3-363.2
			c3.9-14.4,18.7-23,33.1-19.1c0,0,0,0,0,0L722,97c14.4,3.9,23,18.7,19.1,33.1c0,0,0,0,0,0l-97.3,363.2
			C640.6,505.1,629.9,513.3,617.7,513.3z"/>
		<path class="st0" d="M448.4,39.7c1,0,2.1,0.1,3.1,0.4l266.6,71.4c6.4,1.7,10.2,8.3,8.5,14.7c0,0,0,0,0,0l-97.3,363.2
			c-1.4,5.3-6.2,8.9-11.6,8.9c-1,0-2.1-0.1-3.1-0.4L348,426.5c-6.4-1.7-10.2-8.3-8.5-14.7c0,0,0,0,0,0l97.3-363.2
			C438.2,43.3,443,39.7,448.4,39.7 M448.4,9.7L448.4,9.7c-19,0-35.6,12.8-40.6,31.1L310.5,404c-6,22.4,7.3,45.4,29.7,51.4
			l266.6,71.4c22.4,6,45.4-7.3,51.4-29.7c0,0,0,0,0,0L755.6,134c6-22.4-7.3-45.4-29.7-51.4L459.3,11.1
			C455.7,10.2,452.1,9.7,448.4,9.7z"/>
		<path d="M448.4,39.7c1,0,2.1,0.1,3.1,0.4l266.6,71.4c6.4,1.7,10.2,8.3,8.5,14.7c0,0,0,0,0,0l-97.3,363.2
			c-1.4,5.3-6.2,8.9-11.6,8.9c-1,0-2.1-0.1-3.1-0.4L348,426.5c-6.4-1.7-10.2-8.3-8.5-14.7c0,0,0,0,0,0l97.3-363.2
			C438.2,43.3,443,39.7,448.4,39.7 M448.4,19.7L448.4,19.7c-14.5,0-27.2,9.7-30.9,23.7l-97.3,363.2c-4.6,17.1,5.6,34.6,22.6,39.2
			l266.6,71.4c17.1,4.6,34.6-5.6,39.2-22.6l97.3-363.2c4.6-17.1-5.6-34.6-22.6-39.2L456.7,20.8C454,20.1,451.2,19.7,448.4,19.7z"/>
		<path class="st0" d="M230.1,15h276c14.9,0,27,12.1,27,27v376c0,14.9-12.1,27-27,27h-276c-14.9,0-27-12.1-27-27V42
			C203.1,27.1,215.1,15,230.1,15z"/>
		<path class="st0" d="M506,30c6.6,0,12,5.4,12,12v376c0,6.6-5.4,12-12,12H230c-6.6,0-12-5.4-12-12V42c0-6.6,5.4-12,12-12H506
			 M506,0H230c-23.2,0-42,18.8-42,42v376c0,23.2,18.8,42,42,42h276c23.2,0,42-18.8,42-42V42C548,18.8,529.2,0,506,0z"/>
		<path d="M506,30c6.6,0,12,5.4,12,12v376c0,6.6-5.4,12-12,12H230c-6.6,0-12-5.4-12-12V42c0-6.6,5.4-12,12-12H506 M506,10H230
			c-17.7,0-32,14.3-32,32v376c0,17.7,14.3,32,32,32h276c17.7,0,32-14.3,32-32V42C538,24.3,523.7,10,506,10z"/>
		<path class="st0" d="M139.5,560.3c-12.2,0-22.9-8.2-26.1-20L15.9,177.2c-3.9-14.4,4.7-29.2,19.1-33.1l266.6-71.6
			c14.4-3.9,29.2,4.7,33.1,19.1l97.5,363.1c3.9,14.4-4.7,29.2-19.1,33.1l-266.6,71.6C144.2,560,141.9,560.3,139.5,560.3z"/>
		<path class="st0" d="M308.5,86.7c5.4,0,10.2,3.6,11.6,8.9l97.5,363.1c1.7,6.4-2.1,13-8.5,14.7h0l-266.6,71.6c-1,0.3-2,0.4-3.1,0.4
			c-5.4,0-10.2-3.6-11.6-8.9L30.4,173.3c-1.7-6.4,2.1-13,8.5-14.7c0,0,0,0,0,0l266.6-71.6C306.5,86.8,307.5,86.6,308.5,86.7
			 M308.5,56.6L308.5,56.6c-3.7,0-7.3,0.5-10.9,1.4L31.1,129.6c-22.4,6-35.7,29.1-29.7,51.5c0,0,0,0,0,0L99,544.2
			c6,22.4,29,35.7,51.4,29.7L417,502.4c22.4-6,35.7-29.1,29.7-51.5c0,0,0,0,0,0L349.1,87.8C344.2,69.4,327.5,56.7,308.5,56.6
			L308.5,56.6z"/>
		<path d="M308.5,86.7c5.4,0,10.2,3.6,11.6,8.9l97.5,363.1c1.7,6.4-2.1,13-8.5,14.7h0l-266.6,71.6c-1,0.3-2,0.4-3.1,0.4
			c-5.4,0-10.2-3.6-11.6-8.9L30.4,173.3c-1.7-6.4,2.1-13,8.5-14.7c0,0,0,0,0,0l266.6-71.6C306.5,86.8,307.5,86.6,308.5,86.7
			 M308.5,66.6c-2.8,0-5.6,0.4-8.3,1.1L33.7,139.3c-17.1,4.6-27.2,22.1-22.6,39.2c0,0,0,0,0,0l97.5,363.1
			c4.6,17.1,22.1,27.2,39.2,22.6c0,0,0,0,0,0l266.5-71.6c17.1-4.6,27.2-22.1,22.6-39.2c0,0,0,0,0,0L339.5,90.3
			C335.7,76.4,323,66.7,308.5,66.6L308.5,66.6z"/>
		<path d="M229.3,375.2l7.1-1.9l13.9-3.7c2.3-0.6,4.5-1.2,6.8-1.8c4.9-1.3,8.6-2.9,10.3-5.8c1.4-2.5,1.4-5.6,0-10.7
			c-2.6-9.4-1.9-19.1,2.1-30.5l0.7-1.9c1.4-3.6,2.5-7.3,3.5-11.1c5.8-23.7-4.1-49.5-24.2-62.9c-21.7-14.5-48.9-14.2-69.2,0.8
			c-26.8,19.2-33,56.5-13.8,83.3c2.8,3.9,6.1,7.5,9.8,10.7c11.5,10,20.6,18.8,23.4,32.6c0.4,2.7,1.9,5.1,4.2,6.6
			c1.6,1,3.5,1.5,5.3,1.4c1.3,0,2.6-0.2,3.9-0.5C218.4,378.1,223.9,376.6,229.3,375.2z M256.8,355.5l-46.6,12.4
			c-3.8-16.7-15-27.4-28.1-38.6c-14.8-12.6-19.6-35.5-11.3-54.5c7.6-17.7,25-29.2,44.2-29.4c1.1,0,2.1,0,3.2,0.1
			c20.7,1.2,38.3,15.5,43.8,35.5c3,10,2.5,20.8-1.4,30.5C255.5,324.8,251.5,339.2,256.8,355.5z"/>
		<path d="M219.4,395.4c5.3-1.5,10.7-2.9,16-4.3l6.5-1.7l0.2,0c2.1-0.6,4.3-1.1,6.4-1.6c5.4-1.4,11-2.8,16.3-4.7
			c2.7-1,7.5-5,7.2-8.1c-0.1-1.7-0.9-3.2-2.2-4.2c-1.8-1.2-4.4-1.3-8.1-0.4l-13.1,3.5c-10.8,2.9-22,5.8-33,9.1
			c-3,0.9-6.9,5.2-6.5,8.1c0.1,1.7,0.9,3.2,2.3,4.2c1,0.6,2.2,1,3.4,0.9C216.4,396.1,217.9,395.9,219.4,395.4z"/>
		<path d="M276.3,389c-0.9-0.3-1.7-0.7-2.5-1.2c-2.2-1.1-4.4-2.2-6.5-1.7c-15.6,3.7-31.4,8-46.8,12.5c-2.1,0.6-3.5,2.7-4.8,4.8
			c-0.5,0.8-1,1.5-1.6,2.3c-0.3,0.4-0.4,0.9-0.3,1.3c0.1,0.5,0.5,0.8,0.9,1c0.8,0.3,1.7,0.7,2.5,1.2c1.8,0.9,3.7,1.9,5.6,1.9
			c0.3,0,0.7,0,1-0.1c5.9-1.1,11.8-2.8,17.6-4.4c2.2-0.6,4.4-1.2,6.7-1.9c2.1-0.6,4.2-1.1,6.3-1.6c5.4-1.4,11-2.8,16.4-4.7
			c2.1-0.8,3.5-2.8,4.8-4.8c0.5-0.8,1-1.5,1.6-2.2c0.3-0.4,0.4-0.9,0.3-1.3C277.1,389.5,276.7,389.2,276.3,389z"/>
		<path d="M272.4,401.4l-48.6,13c-0.8,0.2-1.3,1-1.1,1.8c0.1,0.3,0.2,0.5,0.4,0.7c6.1,6,12.7,8.9,20.3,8.9c4.2-0.1,8.4-0.8,12.4-2.2
			c9.7-3.1,13.3-10.2,17.4-18.4l0.9-1.7c0.4-0.7,0.1-1.6-0.7-2C273.1,401.4,272.7,401.3,272.4,401.4L272.4,401.4z"/>
		<path d="M187.7,212c0.7,2.6,1.4,5.2,2.1,7.8c0.2,0.7,0.8,1.1,1.4,1.1c0.1,0,0.3,0,0.4,0l7.9-2.1c0.8-0.2,1.3-1,1.1-1.8
			c0,0,0,0,0,0c-0.7-2.7-1.4-5.4-2.1-8.1c-2-7.7-3.9-14.9-6.1-22.1c-0.6-1.8-2.4-2.8-4.2-3.7c-0.7-0.4-1.4-0.7-1.9-1.1
			c-0.4-0.3-0.9-0.3-1.3-0.2c-0.5,0.1-0.8,0.5-1,0.9c-0.2,0.6-0.5,1.2-0.8,1.8c-0.8,1.6-1.7,3.3-1.3,5
			C183.6,196.9,185.6,204.2,187.7,212z"/>
		<path d="M180.1,367l-7.2-4.6c-0.3-0.2-0.8-0.3-1.2-0.2c-0.4,0.1-0.7,0.3-0.9,0.7c-1.4,2.5-2.8,4.9-4.2,7.3
			c-4,6.9-7.8,13.4-11.3,20.1c-0.9,1.6-0.4,3.6,0,5.5c0.2,0.8,0.3,1.5,0.4,2.1c0.1,0.5,0.3,0.9,0.7,1.1c0.2,0.1,0.5,0.2,0.8,0.2
			c0.2,0,0.4,0,0.6-0.1c0.7-0.3,1.3-0.5,2-0.7c1.9-0.6,3.8-1.2,4.8-2.8c4.1-6.4,7.9-12.8,11.8-19.6c1.3-2.3,2.7-4.7,4.1-7
			C181,368.4,180.8,367.4,180.1,367z"/>
		<path d="M318.4,352.2c-0.5-1.7-1.1-3.5-2.5-4.5c-6.5-4.2-13.1-8.2-20.1-12.5l-7.2-4.4c-0.7-0.4-1.6-0.2-2.1,0.5c0,0,0,0,0,0.1
			l-4.2,7.8c-0.4,0.7-0.1,1.6,0.6,2l7.3,4.2c6.9,4,13.4,7.8,20.2,11.4c0.6,0.3,1.3,0.5,1.9,0.4c1.2-0.1,2.4-0.3,3.6-0.7
			c0.7-0.2,1.4-0.4,2.1-0.5c0.8-0.1,1.4-0.9,1.2-1.7c0-0.1-0.1-0.2-0.1-0.3C318.7,353.5,318.5,352.9,318.4,352.2z"/>
		<path d="M149.4,250.8l-7.3-4.1c-6.9-3.9-13.4-7.6-20.1-11c-1.7-0.8-3.6-0.4-5.6,0.1c-0.7,0.2-1.4,0.3-2.1,0.4
			c-0.4,0-0.8,0.3-1.1,0.7c-0.2,0.4-0.3,0.8-0.2,1.3c0.2,0.6,0.3,1.2,0.4,1.7c0.3,1.7,0.7,3.5,2,4.4c6.9,4.4,14.2,8.6,21.1,12.7
			l6.8,4c0.2,0.1,0.5,0.2,0.8,0.2c0.5,0,1-0.3,1.3-0.7l4.5-7.5c0.2-0.3,0.3-0.8,0.2-1.2C150,251.4,149.7,251,149.4,250.8z"/>
		<path d="M259.2,230.4c0.3,0.2,0.6,0.3,0.9,0.3c0.1,0,0.2,0,0.3,0c0.4-0.1,0.8-0.4,1-0.7c1.4-2.5,2.8-4.9,4.1-7.4
			c4-7.1,7.7-13.8,11.3-20.7c0.8-1.6,0.4-3.4,0-5.1c-0.2-0.6-0.3-1.3-0.4-1.9c-0.1-0.8-0.8-1.4-1.7-1.3c-0.1,0-0.2,0-0.3,0.1
			c-0.7,0.2-1.4,0.4-2.1,0.6c-2,0.5-4,1-5,2.6c-4.3,6.5-8.3,13.1-12.2,19.6c-1.3,2.2-2.7,4.4-4,6.6c-0.4,0.7-0.2,1.5,0.4,2
			L259.2,230.4z"/>
		<path d="M138.4,313.1c-0.2-0.8-1-1.3-1.8-1.1c0,0,0,0,0,0c-2.7,0.7-5.4,1.4-8,2.1c-7.7,2-15,4-22.3,6.1c-1.7,0.5-2.7,2-3.7,3.5
			c-0.3,0.5-0.7,1.1-1.1,1.6c-0.5,0.6-0.4,1.6,0.2,2.1c0.1,0.1,0.2,0.1,0.3,0.2c0.6,0.3,1.1,0.6,1.7,1c1.3,0.8,2.7,1.7,4.1,1.7
			c0.2,0,0.5,0,0.7-0.1c7.8-1.8,15.7-3.9,23.2-6l7.6-2c0.8-0.2,1.3-1,1.1-1.8L138.4,313.1z"/>
		<path d="M330.7,265.9c-0.1-0.4-0.4-0.8-0.7-1c-0.5-0.3-1-0.6-1.5-1c-1.4-1.1-2.9-2.2-4.5-1.8c-7.9,1.9-15.6,3.9-23.8,6.1
			c-2.5,0.7-5,1.3-7.5,2c-0.8,0.2-1.3,1-1.1,1.8l1.6,7.5c0.1,0.4,0.3,0.8,0.7,1c0.2,0.1,0.5,0.2,0.8,0.2c0.1,0,0.3,0,0.4,0
			c2.8-0.7,5.5-1.5,8.1-2.1c7.8-2,15.1-4,22.4-6.2c1.7-0.5,2.7-2.1,3.6-3.6c0.4-0.6,0.7-1.1,1.1-1.6
			C330.7,266.8,330.8,266.4,330.7,265.9z"/>
		<path d="M210.7,257.3l-6.1-2.8c-0.4-0.2-0.8-0.2-1.2,0c-18.8,7.5-29.2,20.2-31.9,38.9c-0.3,2.2,0.7,4.4,1.7,6.5
			c0.4,0.8,0.8,1.7,1.1,2.5c0.2,0.5,0.6,0.9,1.2,1h0.2c0.5,0,0.9-0.2,1.2-0.6c0.6-0.7,1.2-1.4,1.8-2c1.6-1.6,3.3-3.3,3.7-5.5
			c2.8-14.8,10.4-24.5,23.3-29.9c1.8-0.8,3-2.5,4.1-4.1c0.5-0.7,0.9-1.3,1.4-1.9c0.3-0.4,0.4-0.8,0.3-1.3
			C211.4,257.9,211.1,257.5,210.7,257.3z"/>
	</g>
</g>
</svg>
